<svg width="148" height="148" viewBox="0 0 148 148" version="1.1" xmlns="http://www.w3.org/2000/svg" xmlns:xlink="http://www.w3.org/1999/xlink">
<title>Group</title>
<desc>Created using Figma</desc>
<g id="Canvas" transform="translate(-340 626)">
<g id="Group">
<g id="disappointed">
<g id="Canvas">
<g id="disappointed">
<g id="Shape">
<g id="Vector">
<use xlink:href="#path0_fill" transform="translate(352.93 -610.319)" fill="#3A9900"/>
</g>
</g>
<g id="Shape">
<g id="Vector">
<use xlink:href="#path1_fill" transform="translate(367.49 -580.451)" fill="#3A9900"/>
</g>
</g>
<g id="Shape">
<g id="Vector">
<use xlink:href="#path2_fill" transform="translate(348 -618)" fill="#3A9900"/>
</g>
</g>
<g id="Shape">
<g id="Vector">
<use xlink:href="#path3_fill" transform="translate(340 -626)"/>
</g>
</g>
<g id="Shape">
<g id="Vector">
<use xlink:href="#path4_fill" transform="translate(423.49 -561.001)"/>
</g>
</g>
<g id="Shape">
<g id="Vector">
<use xlink:href="#path5_fill" transform="translate(372.91 -561.001)"/>
</g>
</g>
<g id="Rectangle path">
<g id="Vector">
<use xlink:href="#path6_fill" transform="translate(388.83 -526.501)"/>
</g>
</g>
<g id="Rectangle path">
<g id="Vector">
<use xlink:href="#path7_fill" transform="matrix(-0.917638 -0.397417 0.397417 -0.917638 454.44 -571.64)"/>
</g>
</g>
<g id="Rectangle path">
<g id="Vector">
<use xlink:href="#path8_fill" transform="matrix(-0.397501 -0.917602 0.917602 -0.397501 373.23 -571.639)"/>
</g>
</g>
</g>
</g>
</g>
</g>
</g>
<defs>
<path id="path0_fill" fill-rule="evenodd" d="M 122.568 46.3178C 122.568 40.6508 121.886 35.1438 120.614 29.8678C 116.98 22.2918 111.939 15.5138 105.835 9.8698C 94.6398 3.1818 81.4523 -0.463203 67.4498 0.0472969C 28.8158 1.4553 -1.36067 33.9168 0.0473349 72.5503C 0.253335 78.2023 1.13233 83.6698 2.59083 88.8868C 5.74233 94.8918 9.78933 100.356 14.5578 105.097C 25.5038 112.191 38.5528 116.317 52.5688 116.317C 91.2278 116.317 122.568 84.9768 122.568 46.3178ZM 79.3553 20.3648L 104.691 31.3368L 101.512 38.6778L 76.1758 27.7058L 79.3553 20.3648ZM 78.5634 49.3173C 78.5634 53.8173 82.0619 57.1158 86.3619 57.1158C 90.6619 57.1158 94.1604 53.8173 94.1604 49.3173L 102.16 49.3173C 102.16 57.8173 95.0734 65.1158 86.3619 65.1158C 77.6504 65.1158 70.5634 57.8173 70.5634 49.3173L 78.5634 49.3173ZM 42.4483 20.3648L 45.6278 27.7058L 20.2918 38.6778L 17.1123 31.3368L 42.4483 20.3648ZM 19.9763 49.3173L 27.9763 49.3173C 27.9763 53.8173 31.4748 57.1158 35.7748 57.1158C 40.0748 57.1158 43.5733 53.8173 43.5733 49.3173L 51.5733 49.3173C 51.5733 57.8173 44.4863 65.1158 35.7748 65.1158C 27.0633 65.1158 19.9763 57.8173 19.9763 49.3173ZM 35.9019 83.8173L 85.9019 83.8173L 85.9019 91.8173L 35.9019 91.8173L 35.9019 83.8173Z"/>
<path id="path1_fill" fill-rule="evenodd" d="M 106.057 0C 107.329 5.2765 108.01 10.783 108.01 16.45C 108.01 55.109 76.67 86.449 38.011 86.449C 23.995 86.449 10.9455 82.3235 0 75.229C 11.94 87.101 28.3835 94.449 46.511 94.449C 82.903 94.449 112.51 64.842 112.51 28.45C 112.51 18.269 110.191 8.6195 106.057 0Z"/>
<path id="path2_fill" fill-rule="evenodd" d="M 72.38 7.7285C 86.383 7.218 99.5705 10.863 110.766 17.551C 98.9925 6.664 83.2605 0 65.999 0C 29.607 0 0 29.607 0 65.999C 0 77.0235 2.721 87.4235 7.521 96.568C 6.0625 91.351 5.1835 85.8835 4.9775 80.2315C 3.5695 41.598 33.746 9.1365 72.38 7.7285Z"/>
<path id="path3_fill" fill-rule="evenodd" d="M 73.999 0C 33.196 0 0 33.196 0 73.999C 0 114.802 33.196 147.998 73.999 147.998C 114.802 147.998 147.998 114.802 147.998 73.999C 147.998 33.196 114.803 0 73.999 0ZM 73.999 139.998C 55.871 139.998 39.4275 132.65 27.488 120.778C 22.72 116.037 18.6725 110.573 15.521 104.568C 10.721 95.4235 8 85.0235 8 73.999C 8 37.607 37.607 8 73.999 8C 91.2605 8 106.993 14.664 118.766 25.551C 124.87 31.195 129.91 37.973 133.545 45.549C 137.68 54.1685 139.998 63.818 139.998 73.999C 139.998 110.391 110.391 139.998 73.999 139.998Z"/>
<path id="path4_fill" fill-rule="evenodd" d="M 15.7985 15.7985C 24.51 15.7985 31.597 8.5 31.597 0L 23.597 0C 23.597 4.5 20.0985 7.7985 15.7985 7.7985C 11.4985 7.7985 8 4.5 8 0L 0 0C 0 8.5 7.087 15.7985 15.7985 15.7985Z"/>
<path id="path5_fill" fill-rule="evenodd" d="M 31.597 0L 23.597 0C 23.597 4.5 20.0985 7.7985 15.7985 7.7985C 11.4985 7.7985 8 4.5 8 0L 0 0C 0 8.5 7.087 15.7985 15.7985 15.7985C 24.51 15.7985 31.597 8.5 31.597 0Z"/>
<path id="path6_fill" fill-rule="evenodd" d="M 0 0L 50 0L 50 8L 0 8L 0 0Z"/>
<path id="path7_fill" fill-rule="evenodd" d="M 0 0L 27.6078 0L 27.6078 7.99917L 0 7.99917L 0 0Z"/>
<path id="path8_fill" fill-rule="evenodd" d="M 0 0L 7.99998 0L 7.99998 27.6099L 0 27.6099L 0 0Z"/>
</defs>
</svg>
