<svg width="149" height="148" viewBox="0 0 149 148" version="1.1" xmlns="http://www.w3.org/2000/svg" xmlns:xlink="http://www.w3.org/1999/xlink">
<title>happiness</title>
<desc>Created using Figma</desc>
<g id="Canvas" transform="translate(-1331 -510)">
<g id="happiness">
<g id="Shape">
<use xlink:href="#path0_fill" transform="translate(1344.18 525.681)" fill="#FFCE00"/>
</g>
<g id="Shape">
<use xlink:href="#path1_fill" transform="translate(1358.74 555.549)" fill="#FFB100"/>
</g>
<g id="Shape">
<use xlink:href="#path2_fill" transform="translate(1339.25 518)" fill="#FFE454"/>
</g>
<g id="Shape">
<use xlink:href="#path3_fill" transform="translate(1331.25 510)"/>
</g>
<g id="Shape">
<use xlink:href="#path4_fill" transform="translate(1364.16 559.2)"/>
</g>
<g id="Shape">
<use xlink:href="#path5_fill" transform="translate(1414.74 559.2)"/>
</g>
<g id="Shape">
<use xlink:href="#path6_fill" transform="translate(1366.59 599.599)"/>
</g>
</g>
</g>
<defs>
<path id="path0_fill" fill-rule="evenodd" d="M 122.568 46.3178C 122.568 40.6508 121.886 35.1438 120.614 29.8678C 116.98 22.2918 111.939 15.5138 105.835 9.8698C 94.6398 3.1818 81.4523 -0.463203 67.4493 0.047297C 28.8158 1.4558 -1.36067 33.9168 0.0473345 72.5503C 0.253835 78.2023 1.13233 83.6698 2.59083 88.8868C 5.74233 94.8918 9.78933 100.356 14.5578 105.097C 25.5038 112.191 38.5528 116.317 52.5693 116.317C 91.2278 116.317 122.568 84.9768 122.568 46.3178L 122.568 46.3178ZM 86.3619 33.5188C 95.0734 33.5188 102.16 40.3173 102.16 49.3173L 94.1604 49.3173C 94.1604 44.8173 90.6619 41.5188 86.3619 41.5188C 82.0619 41.5188 78.5634 44.8173 78.5634 49.3173L 70.5634 49.3173C 70.5634 40.3173 77.6504 33.5188 86.3619 33.5188L 86.3619 33.5188ZM 35.7748 33.5188C 44.4863 33.5188 51.5733 40.3173 51.5733 49.3173L 43.5733 49.3173C 43.5733 44.8173 40.0748 41.5188 35.7748 41.5188C 31.4748 41.5188 27.9763 44.8173 27.9763 49.3173L 19.9763 49.3173C 19.9763 40.3173 27.0633 33.5188 35.7748 33.5188L 35.7748 33.5188ZM 22.4083 78.2598L 29.1273 73.9178C 35.2393 83.3753 45.5328 89.7878 56.6633 91.0718C 70.9433 92.7203 85.2123 85.9853 93.0098 73.9178L 99.7293 78.2598C 91.2373 91.4013 76.4048 99.3163 60.9273 99.3163C 59.2048 99.3163 57.4773 99.2188 55.7463 99.0188C 42.2663 97.4643 29.8033 89.7043 22.4083 78.2598L 22.4083 78.2598Z"/>
<path id="path1_fill" fill-rule="evenodd" d="M 106.057 0C 107.329 5.2765 108.01 10.783 108.01 16.45C 108.01 55.109 76.6705 86.449 38.0115 86.449C 23.9955 86.449 10.946 82.3235 0 75.229C 11.94 87.101 28.383 94.449 46.5115 94.449C 82.9035 94.449 112.51 64.842 112.51 28.45C 112.51 18.269 110.191 8.6195 106.057 0L 106.057 0Z"/>
<path id="path2_fill" fill-rule="evenodd" d="M 72.38 7.7285C 86.383 7.218 99.5705 10.8625 110.766 17.551C 98.9925 6.664 83.2605 0 65.999 0C 29.607 0 0 29.607 0 65.999C 0 77.0235 2.721 87.4235 7.521 96.568C 6.0625 91.351 5.184 85.8835 4.9775 80.2315C 3.5695 41.598 33.746 9.137 72.38 7.7285L 72.38 7.7285Z"/>
<path id="path3_fill" fill-rule="evenodd" d="M 73.999 0C 33.196 0 0 33.196 0 73.999C 0 114.802 33.196 147.998 73.999 147.998C 114.802 147.998 147.998 114.802 147.998 73.999C 147.998 33.196 114.803 0 73.999 0L 73.999 0ZM 73.999 139.998C 55.8705 139.998 39.4275 132.65 27.4875 120.778C 22.7195 116.037 18.672 110.573 15.5205 104.568C 10.721 95.4235 8 85.0235 8 73.999C 8 37.607 37.607 8 73.999 8C 91.2605 8 106.993 14.664 118.766 25.551C 124.87 31.195 129.91 37.973 133.545 45.549C 137.68 54.1685 139.998 63.818 139.998 73.999C 139.998 110.391 110.391 139.998 73.999 139.998L 73.999 139.998Z"/>
<path id="path4_fill" fill-rule="evenodd" d="M 15.7985 8C 20.0985 8 23.597 11.2985 23.597 15.7985L 31.597 15.7985C 31.597 6.7985 24.51 0 15.7985 0C 7.087 0 0 6.7985 0 15.7985L 8 15.7985C 8 11.2985 11.499 8 15.7985 8L 15.7985 8Z"/>
<path id="path5_fill" fill-rule="evenodd" d="M 15.7985 8C 20.0985 8 23.597 11.2985 23.597 15.7985L 31.597 15.7985C 31.597 6.7985 24.51 0 15.7985 0C 7.087 0 0 6.7985 0 15.7985L 8 15.7985C 8 11.2985 11.4985 8 15.7985 8L 15.7985 8Z"/>
<path id="path6_fill" fill-rule="evenodd" d="M 38.519 25.3985C 53.996 25.3985 68.8285 17.4835 77.321 4.342L 70.6015 0C 62.8035 12.0675 48.5345 18.8025 34.255 17.154C 23.124 15.8705 12.8305 9.4575 6.719 0L 0 4.342C 7.395 15.7865 19.858 23.5465 33.338 25.101C 35.0685 25.301 36.7965 25.3985 38.519 25.3985L 38.519 25.3985Z"/>
</defs>
</svg>
