<svg width="149" height="148" viewBox="0 0 149 148" version="1.1" xmlns="http://www.w3.org/2000/svg" xmlns:xlink="http://www.w3.org/1999/xlink">
<title>sad</title>
<desc>Created using Figma</desc>
<g id="Canvas" transform="translate(-1331 -1729)">
<g id="sad">
<g id="Shape">
<use xlink:href="#path0_fill" transform="translate(1344.18 1744.68)" fill="#FFCE00"/>
</g>
<g id="Shape">
<use xlink:href="#path1_fill" transform="translate(1358.74 1774.55)" fill="#FFB100"/>
</g>
<g id="Shape">
<use xlink:href="#path2_fill" transform="translate(1339.25 1737)" fill="#FFE454"/>
</g>
<g id="Shape">
<use xlink:href="#path3_fill" transform="translate(1331.25 1729)"/>
</g>
<g id="Shape">
<use xlink:href="#path4_fill" transform="translate(1368.91 1814.01)"/>
</g>
<g id="Oval">
<use xlink:href="#path5_fill" transform="translate(1372.58 1778.5)"/>
</g>
<g id="Oval">
<use xlink:href="#path5_fill" transform="translate(1422.08 1778.5)"/>
</g>
</g>
</g>
<defs>
<path id="path0_fill" fill-rule="evenodd" d="M 122.568 46.3174C 122.568 40.6504 121.886 35.1434 120.614 29.8674C 116.98 22.2914 111.939 15.5134 105.835 9.86938C 94.6398 3.18138 81.4523 -0.463616 67.4498 0.0473843C 28.8158 1.45538 -1.36067 33.9164 0.0473345 72.5499C 0.253835 78.2019 1.13233 83.6694 2.59083 88.8864C 5.74233 94.8914 9.78933 100.355 14.5578 105.096C 25.5038 112.191 38.5528 116.316 52.5693 116.316C 91.2278 116.316 122.568 84.9764 122.568 46.3174L 122.568 46.3174ZM 85.9028 33.8174C 90.3208 33.8174 93.9028 37.3994 93.9028 41.8174C 93.9028 46.2354 90.3208 49.8174 85.9028 49.8174C 81.4848 49.8174 77.9028 46.2354 77.9028 41.8174C 77.9028 37.3994 81.4848 33.8174 85.9028 33.8174L 85.9028 33.8174ZM 36.4028 33.8174C 40.8208 33.8174 44.4028 37.3994 44.4028 41.8174C 44.4028 46.2354 40.8208 49.8174 36.4028 49.8174C 31.9848 49.8174 28.4028 46.2354 28.4028 41.8174C 28.4028 37.3994 31.9848 33.8174 36.4028 33.8174L 36.4028 33.8174ZM 31.0493 92.0164L 24.7328 87.1064C 35.4533 73.3169 53.4288 66.7179 70.5263 70.2909C 81.1573 72.5144 90.7028 78.4864 97.4043 87.1064L 91.0888 92.0164C 85.5498 84.8919 77.6653 79.9574 68.8888 78.1219C 54.7608 75.1669 39.9073 80.6219 31.0493 92.0164L 31.0493 92.0164Z"/>
<path id="path1_fill" fill-rule="evenodd" d="M 106.057 0C 107.329 5.2765 108.01 10.783 108.01 16.45C 108.01 55.109 76.6705 86.449 38.0115 86.449C 23.9955 86.449 10.946 82.3235 0 75.229C 11.94 87.101 28.383 94.449 46.5115 94.449C 82.9035 94.449 112.51 64.842 112.51 28.45C 112.51 18.269 110.191 8.6195 106.057 0L 106.057 0Z"/>
<path id="path2_fill" fill-rule="evenodd" d="M 72.38 7.7285C 86.383 7.218 99.5705 10.8625 110.766 17.5505C 98.9925 6.664 83.2605 0 65.999 0C 29.607 0 0 29.607 0 65.999C 0 77.0235 2.721 87.4235 7.521 96.568C 6.0625 91.351 5.184 85.8835 4.9775 80.2315C 3.5695 41.598 33.746 9.137 72.38 7.7285L 72.38 7.7285Z"/>
<path id="path3_fill" fill-rule="evenodd" d="M 73.999 0C 33.196 0 0 33.196 0 73.999C 0 114.802 33.196 147.998 73.999 147.998C 114.802 147.998 147.998 114.802 147.998 73.999C 147.998 33.196 114.802 0 73.999 0L 73.999 0ZM 73.999 139.998C 55.8705 139.998 39.4275 132.65 27.4875 120.778C 22.7195 116.037 18.672 110.573 15.5205 104.568C 10.721 95.4235 8 85.0235 8 73.999C 8 37.607 37.607 8 73.999 8C 91.2605 8 106.993 14.664 118.766 25.551C 124.87 31.195 129.91 37.973 133.545 45.549C 137.68 54.1685 139.998 63.818 139.998 73.999C 139.998 110.391 110.391 139.998 73.999 139.998L 73.999 139.998Z"/>
<path id="path4_fill" fill-rule="evenodd" d="M 44.156 8.78909C 52.933 10.6246 60.817 15.5591 66.356 22.6836L 72.6715 17.7736C 65.9705 9.15359 56.4245 3.18159 45.7935 0.958094C 28.696 -2.61491 10.7205 3.98409 0 17.7736L 6.3165 22.6836C 15.1745 11.2891 30.028 5.83409 44.156 8.78909L 44.156 8.78909Z"/>
<path id="path5_fill" fill-rule="evenodd" d="M 8 16C 12.4183 16 16 12.4183 16 8C 16 3.58172 12.4183 0 8 0C 3.58172 0 0 3.58172 0 8C 0 12.4183 3.58172 16 8 16Z"/>
</defs>
</svg>
